<svg width="80" height="80" viewBox="0 0 80 80" fill="none" xmlns="http://www.w3.org/2000/svg">
<rect width="80" height="80" rx="40" fill="#FCFCFC"/>
<g clip-path="url(#clip0_3614_2264)">
<path d="M36.6686 23.353V22.9631C36.6686 22.2408 36.6109 21.5037 36.5241 20.7667C35.6139 24.1334 35.0792 27.5433 34.8625 31.0255C36.1197 28.569 36.6686 26.0116 36.6686 23.353ZM22.7977 44.0584C22.7402 42.9458 22.7112 41.833 22.6823 40.7205C22.6533 40.0992 22.6246 39.4634 22.61 38.8423C22.61 38.5389 22.4945 38.4087 22.191 38.4087L19.576 38.4521C19.489 38.4521 19.4314 38.4955 19.4314 38.5675C19.4314 38.582 19.4457 38.6112 19.4602 38.6398C20.0815 39.5935 20.7751 40.5473 21.3242 41.5585C21.8589 42.599 22.3934 44.0726 22.8702 45.1417C22.8556 44.7806 22.8123 44.3905 22.7977 44.0584ZM33.9377 59.533C33.5479 59.0704 33.2877 58.5214 33.0853 57.9434C32.6228 56.585 32.4208 55.1549 32.2907 53.7245C32.1028 51.5715 32.0017 49.4043 31.9583 47.2513C31.9438 46.529 31.9438 45.8209 31.9438 45.0983C31.9438 43.2924 31.9729 41.4865 32.0162 39.6803L32.1319 36.7616C30.3978 38.0188 28.5484 38.1197 26.7134 38.293L26.28 38.3222C26.1065 38.3364 26.0199 38.4376 26.0199 38.6112L26.0344 39.1165L26.2945 46.6155L26.3088 47.6415C26.3234 48.1471 26.3234 48.6528 26.3234 49.1587C26.3234 51.1958 26.2509 53.2331 26.049 55.2703C26.0054 55.7328 25.9478 56.2096 25.8033 56.6429C25.601 57.1778 25.2251 57.4812 24.7483 57.4957L24.5896 57.4812C24.0838 57.4378 23.6937 57.062 23.6071 56.4552C23.5347 55.7763 23.5205 55.097 23.4335 54.4327C22.9858 51.0514 22.2923 47.728 21.1797 44.5059C20.6305 42.96 19.8504 41.5441 18.8532 40.2438C18.5643 39.8681 18.2899 39.5068 18.073 39.1021C17.9285 38.8423 17.8564 38.582 17.8564 38.3364V38.3078C17.8564 37.7298 18.2465 37.2528 18.9402 37.0361C19.489 36.8629 20.0526 36.834 20.6161 36.8192H22.1478C22.48 36.8192 22.5522 36.7616 22.5522 36.4727V35.7501C22.5667 33.0049 22.5233 30.2595 22.6823 27.5144C22.7977 25.2893 22.8268 23.0495 23.2457 20.8393C23.3902 20.1022 23.5492 19.3799 23.7949 18.6718C23.9394 18.3108 24.0838 17.9347 24.3583 17.6458C24.6184 17.386 24.9219 17.2555 25.2108 17.2555H25.2396C25.6731 17.2555 26.0923 17.5448 26.28 18.0649C26.4245 18.4407 26.4245 18.8306 26.4533 19.2208L26.4678 19.7409V20.0877C26.4678 21.3446 26.3956 22.6162 26.2945 23.8731C26.0344 27.0374 25.9333 30.2164 25.9333 33.4093C25.9333 34.3486 25.9478 35.3023 25.962 36.2412C25.9766 36.877 25.9911 36.877 26.6269 36.877L27.147 36.8629C28.0861 36.8484 29.0397 36.7906 29.9644 36.5594C30.3546 36.4437 30.7302 36.2846 31.0915 36.0683C31.8571 35.6346 32.2473 35.0856 32.3052 34.1174C32.4496 30.5919 32.6807 27.0811 33.3456 23.6133C33.5621 22.515 33.8223 21.4317 34.2124 20.3767C34.4002 19.7988 34.6604 19.2495 34.9781 18.7296C35.1805 18.4262 35.3973 18.1372 35.7005 17.9206C35.9462 17.7615 36.1773 17.675 36.4087 17.675H36.4374C36.8421 17.675 37.1888 17.964 37.3334 18.4982C37.5646 19.3507 37.6224 20.2321 37.6655 21.099L37.6803 21.4169V21.5471C37.6803 22.9197 37.4778 24.2633 37.2901 25.6072C36.9432 28.3234 36.1339 30.9101 34.7325 33.2794C34.5302 33.6118 34.4723 33.9583 34.4435 34.3196C34.2269 37.3251 34.0534 40.3303 33.9668 43.3502C33.9235 44.8819 33.8944 46.3991 33.8944 47.9305C33.8944 48.6386 33.8944 49.3464 33.9089 50.0543C33.9235 50.9935 33.9523 51.9472 33.9955 52.8862C34.0679 54.1434 34.1834 55.4005 34.3857 56.6429C34.5013 57.3076 34.6604 57.9865 34.9927 58.5937C35.0505 58.666 35.0938 58.767 35.1226 58.8537C35.166 58.9405 35.1805 59.0414 35.1805 59.1428C35.1805 59.4028 35.0647 59.6194 34.8625 59.7493C34.7616 59.7927 34.6604 59.8219 34.5447 59.8219C34.3278 59.8219 34.1113 59.7351 33.9377 59.533Z" fill="#161717"/>
<path d="M41.9114 58.1023C41.4202 58.1023 41.0448 57.8132 40.7844 57.3944C40.5967 57.1054 40.4813 56.7731 40.38 56.4552C39.9322 55.0391 39.73 53.5654 39.542 52.1061C38.8776 46.789 38.5449 41.4428 38.5449 36.0827V35.1001C38.5883 29.8985 38.9785 24.7258 39.9467 19.611C40.0043 19.3073 40.0621 18.9897 40.1344 18.6862C40.2357 18.325 40.38 17.9926 40.6256 17.7181C40.9435 17.3568 41.3482 17.1835 41.7381 17.1835C42.1862 17.1835 42.6195 17.4002 42.9374 17.8482C43.1975 18.2382 43.2987 18.6718 43.2987 19.1051C43.2987 19.3365 43.2698 19.5676 43.2264 19.8132C42.7928 21.9518 42.4894 24.1045 42.2582 26.2861C41.9114 29.5517 41.7815 32.8172 41.7815 36.0827L41.796 38.0619C41.8394 40.1281 41.9114 42.1943 42.0419 44.2461C42.056 44.5351 42.085 44.9398 42.1717 45.7341L42.7208 42.4978C43.7031 37.2962 44.8301 32.1235 46.3618 27.0521C46.5784 26.3151 46.8385 25.5783 47.1708 24.8846C47.3586 24.4803 47.5755 24.1045 47.8931 23.8011C48.24 23.469 48.6302 23.3099 49.0057 23.3099C49.3959 23.3099 49.7861 23.469 50.1185 23.7866C50.6241 24.2778 50.8552 24.9136 51.0288 25.5783C51.3178 26.7918 51.3756 28.0345 51.4476 29.2627C51.6501 32.8748 51.8523 36.4871 52.0401 40.0992C52.0545 40.2869 52.0693 40.4315 52.1124 40.6337C52.329 40.3448 52.5315 39.8536 52.6614 39.5646C53.2394 38.3656 53.7884 37.1519 54.5107 36.0101C54.7855 35.5913 55.0455 35.1435 55.4355 34.7966C55.7389 34.5221 56.0571 34.392 56.3603 34.392C56.7936 34.392 57.1838 34.6665 57.4152 35.23C57.6174 35.7359 57.6897 36.2705 57.7328 36.805C57.8196 38.221 57.8919 39.6514 58.0073 41.0818C58.0941 42.3387 58.2529 43.5958 58.6868 44.7952C58.8167 45.1561 58.9755 45.5177 59.2066 45.8353C59.322 45.9944 59.4233 46.0664 59.5104 46.0664C59.6113 46.0664 59.6981 45.9944 59.828 45.8497C60.088 45.5608 60.3047 45.2287 60.5072 44.8961C61.6342 42.9745 62.5876 40.1715 63.6567 37.4984C63.7724 37.2239 63.917 36.8484 63.9749 36.7327C64.0328 36.6315 64.1048 36.5736 64.2205 36.5736C64.2925 36.5881 64.3504 36.6173 64.3796 36.6607C64.4082 36.7038 64.4371 36.7616 64.4371 36.8192C64.4227 36.9204 64.307 37.2962 64.2205 37.5418C63.1658 40.3303 62.1832 43.249 61.2153 45.3441C61.0417 45.691 60.8392 46.0809 60.6371 46.4133C60.5361 46.5724 60.4204 46.7602 60.2761 46.89C59.9148 47.2513 59.6836 47.367 59.3079 47.3812H59.25C59.0189 47.3812 58.7733 47.3091 58.5277 47.1648C58.0797 46.9044 57.7184 46.5576 57.4438 46.1101C56.6203 44.7952 56.1578 43.3502 55.9845 41.8041C55.8835 40.9083 55.8257 40.0127 55.8257 39.1165C55.8257 38.4376 55.8546 37.7584 55.9125 37.0795C55.9414 36.7472 55.9559 36.4582 55.97 36.2846C55.7681 36.5881 55.5225 37.0506 55.349 37.3538C54.6411 38.582 54.1497 39.897 53.5286 41.1538C53.2828 41.6598 53.0372 42.1654 52.7337 42.6425C52.3583 43.249 51.8379 43.538 51.3322 43.538C50.8118 43.538 50.2917 43.22 49.9018 42.5698C49.5694 42.0211 49.4103 41.4142 49.2805 40.7928C48.9481 39.3046 48.8038 37.7729 48.688 36.2557C48.5289 34.0741 48.4569 31.8924 48.3704 29.7105C48.3557 29.1325 48.3412 28.6703 48.2978 28.4102C48.1821 28.7426 48.0378 29.2338 47.9365 29.5806C46.2316 35.4755 44.7722 41.4287 43.9201 47.5258C43.5298 50.3435 43.3129 53.1752 43.2987 56.0219C43.2987 56.3828 43.2987 56.7441 43.1686 57.091C42.9808 57.6401 42.6485 58.0302 42.0419 58.1023H41.9114Z" fill="#161717"/>
<path d="M16.3373 59.4111C11.9924 54.1239 9.38041 47.3611 9.38041 39.9997C9.38041 23.1157 23.1165 9.37966 40.0006 9.37966C56.8843 9.37966 70.6203 23.1157 70.6203 39.9997C70.6203 47.3611 68.0086 54.1239 63.6636 59.4111H65.4226C69.5465 54.0232 72.0009 47.2932 72.0009 39.9997C72.0009 22.3544 57.6456 7.99912 40.0006 7.99912C22.3553 7.99912 8 22.3544 8 39.9997C8 47.2932 10.4545 54.0232 14.5783 59.4111H16.3373Z" fill="#161717"/>
<path d="M54.7601 66.8197C50.3803 69.2398 45.3487 70.6195 40.0004 70.6195C34.652 70.6195 29.6204 69.2398 25.2403 66.8197H22.5645C27.5838 70.094 33.5732 72 40.0004 72C46.4273 72 52.4167 70.094 57.4362 66.8197H54.7601Z" fill="#161717"/>
<path d="M12.6987 65.347V63.6247H12.0165V65.347H11.1958V61.232H12.0165V62.8849H12.6987V61.232H13.5194V65.347H12.6987Z" fill="#161717"/>
<path d="M14.7324 65.347V61.232H16.6282V61.972H15.553V62.9024H16.4778V63.6422H15.553V64.6074H16.6282V65.347H14.7324Z" fill="#161717"/>
<path d="M18.8879 62.4401L18.5699 63.9659H19.2057L18.8879 62.4401ZM19.4947 65.347L19.362 64.7056H18.4141L18.281 65.347H17.4258L18.4833 61.232H19.2927L20.3501 65.347H19.4947Z" fill="#161717"/>
<path d="M21.2798 65.347V61.232H22.1005V64.6074H23.1757V65.347H21.2798Z" fill="#161717"/>
<path d="M25.2328 61.972V65.347H24.4122V61.972H23.7188V61.232H25.9265V61.972H25.2328Z" fill="#161717"/>
<path d="M28.4404 65.347V63.6247H27.7581V65.347H26.9375V61.232H27.7581V62.8849H28.4404V61.232H29.2611V65.347H28.4404Z" fill="#161717"/>
<path d="M31.8089 63.7983V65.347H30.9884V63.7983L30.1504 61.232H31.0521L31.3985 62.7232L31.7454 61.232H32.647L31.8089 63.7983Z" fill="#161717"/>
<path d="M37.2299 65.347V63.2029L36.7791 64.6129H36.3573L35.9179 63.2087V65.347H35.0972V61.232H35.8199L36.5711 63.2492L37.3225 61.232H38.0507V65.347H37.2299Z" fill="#161717"/>
<path d="M40.443 62.4401L40.1251 63.9659H40.7606L40.443 62.4401ZM41.0496 65.347L40.917 64.7056H39.9692L39.8361 65.347H38.981L40.0386 61.232H40.8477L41.9053 65.347H41.0496Z" fill="#161717"/>
<path d="M44.5284 65.347L43.6555 63.3357V65.347H42.835V61.232H43.5516L44.4071 63.2433V61.232H45.2277V65.347H44.5284Z" fill="#161717"/>
<path d="M47.6202 62.4401L47.3023 63.9659H47.9381L47.6202 62.4401ZM48.2271 65.347L48.0943 64.7056H47.1465L47.0133 65.347H46.1582L47.2155 61.232H48.0249L49.0825 65.347H48.2271Z" fill="#161717"/>
<path d="M51.0121 65.3931C50.5672 65.3931 50.2954 65.2083 50.1103 64.9771C49.8213 64.6248 49.8042 64.0813 49.8042 63.2897C49.8042 62.4976 49.8213 61.9546 50.1103 61.6021C50.2954 61.371 50.5672 61.1856 51.0121 61.1856C51.3589 61.1856 51.6245 61.3014 51.8214 61.4921C52.0407 61.7116 52.1565 62.0355 52.1739 62.411H51.353C51.3474 62.2377 51.3244 61.9254 51.0121 61.9254C50.8618 61.9254 50.7809 61.9951 50.7346 62.0874C50.6363 62.2781 50.6248 62.7926 50.6248 63.2897C50.6248 63.7864 50.6363 64.301 50.7346 64.4916C50.7809 64.5843 50.8618 64.6533 51.0121 64.6533C51.2839 64.6533 51.353 64.3992 51.353 64.1737V63.746H51.0121V63.0815H52.1739V64.1277C52.1739 64.9483 51.7172 65.3931 51.0121 65.3931Z" fill="#161717"/>
<path d="M53.2773 65.347V61.232H55.1733V61.972H54.0979V62.9024H55.0227V63.6422H54.0979V64.6074H55.1733V65.347H53.2773Z" fill="#161717"/>
<path d="M58.3861 65.347V63.2029L57.9353 64.6129H57.5135L57.074 63.2087V65.347H56.2534V61.232H56.976L57.7272 63.2492L58.4787 61.232H59.2067V65.347H58.3861Z" fill="#161717"/>
<path d="M60.4199 65.347V61.232H62.3155V61.972H61.2405V62.9024H62.1653V63.6422H61.2405V64.6074H62.3155V65.347H60.4199Z" fill="#161717"/>
<path d="M65.0897 65.347L64.2169 63.3357V65.347H63.396V61.232H64.1127L64.9684 63.2433V61.232H65.789V65.347H65.0897Z" fill="#161717"/>
<path d="M68.3141 61.972V65.347H67.4932V61.972H66.7998V61.232H69.0074V61.972H68.3141Z" fill="#161717"/>
</g>
<defs>
<clipPath id="clip0_3614_2264">
<rect width="64" height="64" fill="white" transform="translate(8 8)"/>
</clipPath>
</defs>
</svg>
