<svg aria-hidden="true" style="position: absolute; width: 0; height: 0; overflow: hidden;" version="1.1" xmlns="http://www.w3.org/2000/svg" xmlns:xlink="http://www.w3.org/1999/xlink">
<defs>
<symbol id="star" viewBox="0 0 32 32">
<path fill="#961c1c" style="fill: var(--color1, #961c1c)" d="M16 24.099l5.82 3.683c1.066 0.675 2.37-0.323 2.090-1.585l-1.543-6.926 5.147-4.666c0.94-0.851 0.435-2.465-0.799-2.568l-6.773-0.602-2.65-6.544c-0.477-1.189-2.104-1.189-2.58 0l-2.65 6.53-6.773 0.602c-1.234 0.103-1.739 1.717-0.799 2.568l5.147 4.666-1.543 6.926c-0.28 1.262 1.024 2.26 2.090 1.585l5.82-3.668z"></path>
</symbol>
<symbol id="facebook" viewBox="0 0 32 32">
<path d="M19.52 4.641c0.24 0 0.48 0 0.96 0v3.6c-0.24 0-0.72 0-1.2 0s-0.96 0-1.2 0.24c-0.24 0.24-0.24 0.48-0.24 1.040 0 0.48 0 0.8 0 1.28h2.64v3.040h-2.64v13.2h-4.080v-13.28h-2.16v-3.040h2.16v-1.040c0-1.76 0.24-3.040 0.72-3.6 0.72-1.040 2.16-1.52 4.32-1.52 0.24 0.080 0.48 0.080 0.72 0.080z"></path>
</symbol>
<symbol id="instagram" viewBox="0 0 32 32">
<path fill="#fcfcfc" style="fill: var(--color1, #fcfcfc)" opacity="0.8" d="M31.897 9.445c-0.020-1.343-0.268-2.675-0.745-3.931-0.833-2.145-2.53-3.841-4.679-4.671-1.242-0.467-2.555-0.717-3.885-0.745-1.709-0.076-2.251-0.098-6.591-0.098s-4.896 0-6.593 0.098c-1.327 0.028-2.641 0.279-3.883 0.745-2.148 0.83-3.847 2.526-4.679 4.671-0.467 1.24-0.72 2.551-0.745 3.876-0.076 1.708-0.1 2.249-0.1 6.582s0 4.886 0.1 6.582c0.027 1.327 0.277 2.636 0.745 3.88 0.833 2.143 2.53 3.839 4.681 4.669 1.237 0.483 2.55 0.756 3.883 0.798 1.711 0.076 2.253 0.099 6.593 0.099s4.896 0 6.593-0.099c1.327-0.027 2.641-0.277 3.884-0.743 2.148-0.832 3.845-2.528 4.679-4.671 0.467-1.242 0.718-2.551 0.745-3.88 0.076-1.707 0.099-2.248 0.099-6.582-0.004-4.332-0.004-4.882-0.103-6.58zM15.988 24.164c-4.538 0-8.215-3.671-8.215-8.201s3.677-8.201 8.215-8.201c4.535 0 8.215 3.67 8.215 8.201s-3.68 8.201-8.215 8.201zM24.53 9.37c-1.061 0-1.916-0.855-1.916-1.912s0.855-1.912 1.916-1.912c1.057 0 1.914 0.855 1.914 1.912s-0.857 1.912-1.914 1.912z"></path>
<path fill="#fcfcfc" style="fill: var(--color1, #fcfcfc)" opacity="0.8" d="M15.992 19.977c2.211 0 4.004-1.793 4.004-4.004s-1.793-4.004-4.004-4.004c-2.211 0-4.004 1.793-4.004 4.004s1.793 4.004 4.004 4.004z"></path>
</symbol>
<symbol id="logo-white" viewBox="0 0 182 32">
<path fill="#f8f8f8" style="fill: var(--color3, #f8f8f8)" d="M14.335 7.677v-0.195c0-0.361-0.029-0.73-0.072-1.098-0.455 1.683-0.722 3.388-0.831 5.129 0.629-1.228 0.903-2.507 0.903-3.836zM7.399 18.030c-0.029-0.556-0.043-1.113-0.058-1.669-0.015-0.311-0.029-0.629-0.036-0.939 0-0.152-0.058-0.217-0.21-0.217l-1.308 0.022c-0.043 0-0.072 0.022-0.072 0.058 0 0.007 0.007 0.022 0.014 0.036 0.311 0.477 0.657 0.954 0.932 1.459 0.267 0.52 0.535 1.257 0.773 1.792-0.007-0.18-0.029-0.376-0.036-0.542zM12.969 25.767c-0.195-0.231-0.325-0.506-0.426-0.795-0.231-0.679-0.332-1.394-0.397-2.109-0.094-1.076-0.144-2.16-0.166-3.237-0.007-0.361-0.007-0.715-0.007-1.076 0-0.903 0.014-1.806 0.036-2.709l0.058-1.459c-0.867 0.629-1.792 0.679-2.709 0.766l-0.217 0.015c-0.087 0.007-0.13 0.058-0.13 0.144l0.007 0.253 0.13 3.75 0.007 0.513c0.007 0.253 0.007 0.506 0.007 0.759 0 1.019-0.036 2.037-0.137 3.056-0.022 0.231-0.051 0.47-0.123 0.686-0.101 0.267-0.289 0.419-0.528 0.426l-0.079-0.007c-0.253-0.022-0.448-0.21-0.491-0.513-0.036-0.339-0.043-0.679-0.087-1.011-0.224-1.691-0.571-3.352-1.127-4.963-0.275-0.773-0.665-1.481-1.163-2.131-0.144-0.188-0.282-0.369-0.39-0.571-0.072-0.13-0.108-0.26-0.108-0.383v-0.014c0-0.289 0.195-0.528 0.542-0.636 0.274-0.087 0.556-0.101 0.838-0.108h0.766c0.166 0 0.202-0.029 0.202-0.173v-0.361c0.007-1.373-0.014-2.745 0.065-4.118 0.058-1.113 0.072-2.232 0.282-3.338 0.072-0.369 0.152-0.73 0.275-1.084 0.072-0.181 0.144-0.369 0.282-0.513 0.13-0.13 0.282-0.195 0.426-0.195h0.014c0.217 0 0.426 0.145 0.52 0.405 0.072 0.188 0.072 0.383 0.087 0.578l0.007 0.26v0.173c0 0.628-0.036 1.264-0.087 1.893-0.13 1.582-0.181 3.172-0.181 4.768 0 0.47 0.007 0.946 0.014 1.416 0.007 0.318 0.015 0.318 0.332 0.318l0.26-0.007c0.47-0.007 0.946-0.036 1.409-0.152 0.195-0.058 0.383-0.137 0.564-0.246 0.383-0.217 0.578-0.491 0.607-0.975 0.072-1.763 0.188-3.518 0.52-5.252 0.108-0.549 0.238-1.091 0.433-1.618 0.094-0.289 0.224-0.564 0.383-0.824 0.101-0.152 0.21-0.296 0.361-0.405 0.123-0.080 0.238-0.123 0.354-0.123h0.014c0.202 0 0.376 0.144 0.448 0.412 0.116 0.426 0.144 0.867 0.166 1.3l0.007 0.159v0.065c0 0.686-0.101 1.358-0.195 2.030-0.173 1.358-0.578 2.651-1.279 3.836-0.101 0.166-0.13 0.339-0.145 0.52-0.108 1.503-0.195 3.005-0.238 4.515-0.022 0.766-0.036 1.524-0.036 2.29 0 0.354 0 0.708 0.007 1.062 0.007 0.47 0.022 0.946 0.043 1.416 0.036 0.629 0.094 1.257 0.195 1.878 0.058 0.332 0.137 0.672 0.304 0.975 0.029 0.036 0.051 0.087 0.065 0.13 0.022 0.043 0.029 0.094 0.029 0.145 0 0.13-0.058 0.238-0.159 0.303-0.050 0.022-0.101 0.036-0.159 0.036-0.108 0-0.217-0.043-0.303-0.144z"></path>
<path fill="#f8f8f8" style="fill: var(--color3, #f8f8f8)" d="M16.956 25.052c-0.246 0-0.433-0.144-0.564-0.354-0.094-0.144-0.152-0.311-0.202-0.47-0.224-0.708-0.325-1.445-0.419-2.175-0.332-2.659-0.499-5.332-0.499-8.012v-0.491c0.022-2.601 0.217-5.187 0.701-7.745 0.029-0.152 0.058-0.311 0.094-0.462 0.051-0.181 0.123-0.347 0.246-0.484 0.159-0.181 0.361-0.267 0.556-0.267 0.224 0 0.441 0.108 0.6 0.332 0.13 0.195 0.181 0.412 0.181 0.628 0 0.116-0.014 0.231-0.036 0.354-0.217 1.069-0.368 2.146-0.484 3.236-0.173 1.633-0.238 3.266-0.238 4.898l0.007 0.99c0.022 1.033 0.058 2.066 0.123 3.092 0.007 0.144 0.022 0.347 0.065 0.744l0.274-1.618c0.491-2.601 1.055-5.187 1.82-7.723 0.108-0.369 0.238-0.737 0.405-1.084 0.094-0.202 0.202-0.39 0.361-0.542 0.173-0.166 0.368-0.246 0.556-0.246 0.195 0 0.39 0.080 0.556 0.238 0.253 0.246 0.368 0.563 0.455 0.896 0.144 0.607 0.173 1.228 0.209 1.842 0.101 1.806 0.202 3.612 0.296 5.418 0.007 0.094 0.015 0.166 0.036 0.267 0.108-0.144 0.21-0.39 0.274-0.535 0.289-0.6 0.564-1.206 0.925-1.777 0.137-0.209 0.267-0.433 0.462-0.607 0.152-0.137 0.311-0.202 0.462-0.202 0.217 0 0.412 0.137 0.527 0.419 0.101 0.253 0.137 0.52 0.159 0.788 0.043 0.708 0.080 1.423 0.137 2.138 0.043 0.628 0.123 1.257 0.34 1.857 0.065 0.18 0.144 0.361 0.26 0.52 0.058 0.080 0.108 0.116 0.152 0.116 0.050 0 0.094-0.036 0.159-0.108 0.13-0.144 0.238-0.311 0.34-0.477 0.564-0.961 1.040-2.362 1.575-3.699 0.058-0.137 0.13-0.325 0.159-0.383 0.029-0.051 0.065-0.080 0.123-0.080 0.036 0.007 0.065 0.022 0.080 0.044s0.029 0.050 0.029 0.079c-0.007 0.051-0.065 0.238-0.108 0.361-0.527 1.394-1.019 2.854-1.503 3.901-0.087 0.173-0.188 0.368-0.289 0.535-0.050 0.080-0.108 0.173-0.18 0.238-0.181 0.181-0.296 0.239-0.484 0.246h-0.029c-0.116 0-0.238-0.036-0.361-0.108-0.224-0.13-0.405-0.304-0.542-0.527-0.412-0.657-0.643-1.38-0.73-2.153-0.050-0.448-0.079-0.896-0.079-1.344 0-0.339 0.014-0.679 0.043-1.018 0.014-0.166 0.022-0.311 0.029-0.397-0.101 0.152-0.224 0.383-0.31 0.535-0.354 0.614-0.6 1.272-0.91 1.9-0.123 0.253-0.246 0.506-0.397 0.744-0.188 0.303-0.448 0.448-0.701 0.448-0.26 0-0.52-0.159-0.715-0.484-0.166-0.274-0.246-0.578-0.311-0.888-0.166-0.744-0.238-1.51-0.296-2.269-0.080-1.091-0.116-2.182-0.159-3.273-0.007-0.289-0.015-0.52-0.036-0.65-0.058 0.166-0.13 0.412-0.181 0.585-0.852 2.947-1.582 5.924-2.008 8.973-0.195 1.409-0.304 2.825-0.311 4.248 0 0.18 0 0.361-0.065 0.535-0.094 0.274-0.26 0.47-0.563 0.506h-0.065z"></path>
<path fill="#f8f8f8" style="fill: var(--color3, #f8f8f8)" d="M4.169 25.706c-2.172-2.644-3.478-6.025-3.478-9.706 0-8.442 6.868-15.31 15.31-15.31s15.31 6.868 15.31 15.31c0 3.681-1.306 7.062-3.478 9.706h0.879c2.062-2.694 3.289-6.059 3.289-9.706 0-8.823-7.178-16-16-16s-16 7.178-16 16c0 3.647 1.227 7.012 3.289 9.706h0.88z"></path>
<path fill="#f8f8f8" style="fill: var(--color3, #f8f8f8)" d="M23.38 29.411c-2.19 1.21-4.706 1.9-7.38 1.9s-5.19-0.69-7.38-1.9h-1.338c2.51 1.637 5.504 2.59 8.718 2.59s6.208-0.953 8.718-2.59h-1.338z"></path>
<path fill="#f8f8f8" style="fill: var(--color3, #f8f8f8)" d="M42.022 21.601v-4.353h-1.644v4.353h-1.978v-10.4h1.978v4.178h1.644v-4.178h1.978v10.4h-1.978z"></path>
<path fill="#f8f8f8" style="fill: var(--color3, #f8f8f8)" d="M47.2 21.601v-10.4h4.8v1.87h-2.722v2.351h2.341v1.87h-2.341v2.439h2.722v1.869h-4.8z"></path>
<path fill="#f8f8f8" style="fill: var(--color3, #f8f8f8)" d="M57.2 14.254l-0.783 3.856h1.565l-0.782-3.856zM58.694 21.601l-0.327-1.621h-2.334l-0.328 1.621h-2.106l2.604-10.4h1.993l2.604 10.4h-2.106z"></path>
<path fill="#f8f8f8" style="fill: var(--color3, #f8f8f8)" d="M63.2 21.601v-10.4h2.078v8.531h2.722v1.869h-4.8z"></path>
<path fill="#f8f8f8" style="fill: var(--color3, #f8f8f8)" d="M73.441 13.071v8.53h-2.082v-8.53h-1.759v-1.87h5.6v1.87h-1.76z"></path>
<path fill="#f8f8f8" style="fill: var(--color3, #f8f8f8)" d="M81.222 21.601v-4.353h-1.644v4.353h-1.978v-10.4h1.978v4.178h1.644v-4.178h1.978v10.4h-1.978z"></path>
<path fill="#f8f8f8" style="fill: var(--color3, #f8f8f8)" d="M89.321 17.687v3.914h-1.841v-3.914l-1.88-6.486h2.023l0.777 3.769 0.778-3.769h2.022l-1.879 6.486z"></path>
<path fill="#f8f8f8" style="fill: var(--color3, #f8f8f8)" d="M102.799 21.601v-5.419l-1.098 3.564h-1.029l-1.071-3.549v5.404h-2.001v-10.4h1.762l1.831 5.098 1.832-5.098h1.774v10.4h-2.001z"></path>
<path fill="#f8f8f8" style="fill: var(--color3, #f8f8f8)" d="M110.8 14.254l-0.782 3.856h1.565l-0.782-3.856zM112.294 21.601l-0.326-1.621h-2.334l-0.328 1.621h-2.106l2.604-10.4h1.993l2.603 10.4h-2.106z"></path>
<path fill="#f8f8f8" style="fill: var(--color3, #f8f8f8)" d="M120.764 21.601l-2.043-5.083v5.083h-1.921v-10.4h1.678l2.002 5.083v-5.083h1.92v10.4h-1.636z"></path>
<path fill="#f8f8f8" style="fill: var(--color3, #f8f8f8)" d="M128.4 14.254l-0.782 3.856h1.565l-0.782-3.856zM129.894 21.601l-0.327-1.621h-2.334l-0.328 1.621h-2.106l2.604-10.4h1.993l2.603 10.4h-2.106z"></path>
<path fill="#f8f8f8" style="fill: var(--color3, #f8f8f8)" d="M136.862 21.601c-1.202 0-1.935-0.457-2.435-1.028-0.781-0.871-0.827-2.214-0.827-4.171s0.046-3.3 0.827-4.171c0.5-0.571 1.234-1.029 2.435-1.029 0.937 0 1.654 0.286 2.186 0.758 0.592 0.543 0.905 1.343 0.951 2.271h-2.217c-0.015-0.428-0.077-1.2-0.921-1.2-0.406 0-0.624 0.172-0.75 0.4-0.265 0.471-0.296 1.743-0.296 2.972s0.031 2.5 0.296 2.971c0.126 0.229 0.344 0.4 0.75 0.4 0.734 0 0.921-0.628 0.921-1.186v-1.057h-0.921v-1.642h3.138v2.586c0 2.028-1.233 3.128-3.138 3.128z"></path>
<path fill="#f8f8f8" style="fill: var(--color3, #f8f8f8)" d="M142.4 21.601v-10.4h4.8v1.87h-2.722v2.351h2.342v1.87h-2.342v2.439h2.722v1.869h-4.8z"></path>
<path fill="#f8f8f8" style="fill: var(--color3, #f8f8f8)" d="M154.8 21.601v-5.419l-1.099 3.564h-1.028l-1.072-3.549v5.404h-2.001v-10.4h1.762l1.831 5.098 1.832-5.098h1.774v10.4h-2z"></path>
<path fill="#f8f8f8" style="fill: var(--color3, #f8f8f8)" d="M160 21.601v-10.4h4.8v1.87h-2.722v2.351h2.342v1.87h-2.342v2.439h2.722v1.869h-4.8z"></path>
<path fill="#f8f8f8" style="fill: var(--color3, #f8f8f8)" d="M171.73 21.601l-2.334-5.083v5.083h-2.196v-10.4h1.917l2.289 5.083v-5.083h2.194v10.4h-1.87z"></path>
<path fill="#f8f8f8" style="fill: var(--color3, #f8f8f8)" d="M179.842 13.071v8.53h-2.082v-8.53h-1.759v-1.87h5.6v1.87h-1.758z"></path>
</symbol>
</defs>
</svg>
