<svg aria-hidden="true" style="position: absolute; width: 0; height: 0; overflow: hidden;" version="1.1" xmlns="http://www.w3.org/2000/svg" xmlns:xlink="http://www.w3.org/1999/xlink">
<defs>
<symbol id="icon-menuburger" viewBox="0 0 32 32">
<path stroke-linejoin="round" stroke-linecap="round" stroke-miterlimit="4" stroke-width="1.6" d="M4 8h24M4 16h24M4 24h24"></path>
</symbol>
<symbol id="icon-g10" viewBox="0 0 32 32">
<path d="M14.334 7.676v-0.195c0-0.361-0.029-0.73-0.072-1.098-0.455 1.683-0.722 3.388-0.831 5.129 0.629-1.228 0.903-2.507 0.903-3.836zM7.399 18.029c-0.029-0.556-0.043-1.113-0.058-1.669-0.015-0.311-0.029-0.629-0.036-0.939 0-0.152-0.058-0.217-0.21-0.217l-1.308 0.022c-0.043 0-0.072 0.022-0.072 0.058 0 0.007 0.007 0.022 0.014 0.036 0.311 0.477 0.657 0.954 0.932 1.459 0.267 0.52 0.535 1.257 0.773 1.792-0.007-0.18-0.029-0.376-0.036-0.542zM12.969 25.766c-0.195-0.231-0.325-0.506-0.426-0.795-0.231-0.679-0.332-1.394-0.397-2.109-0.094-1.076-0.144-2.16-0.166-3.237-0.007-0.361-0.007-0.715-0.007-1.076 0-0.903 0.015-1.806 0.036-2.709l0.058-1.459c-0.867 0.629-1.792 0.679-2.709 0.766l-0.217 0.015c-0.087 0.007-0.13 0.058-0.13 0.144l0.007 0.253 0.13 3.75 0.007 0.513c0.007 0.253 0.007 0.506 0.007 0.759 0 1.018-0.036 2.037-0.137 3.056-0.022 0.231-0.051 0.47-0.123 0.686-0.101 0.267-0.289 0.419-0.528 0.426l-0.079-0.007c-0.253-0.022-0.448-0.21-0.491-0.513-0.036-0.339-0.043-0.679-0.087-1.011-0.224-1.691-0.571-3.352-1.127-4.963-0.275-0.773-0.665-1.481-1.163-2.131-0.144-0.188-0.282-0.369-0.39-0.571-0.072-0.13-0.108-0.26-0.108-0.383v-0.014c0-0.289 0.195-0.527 0.542-0.636 0.274-0.087 0.556-0.101 0.838-0.108h0.766c0.166 0 0.202-0.029 0.202-0.173v-0.361c0.007-1.373-0.014-2.745 0.065-4.118 0.058-1.113 0.072-2.232 0.282-3.338 0.072-0.369 0.152-0.73 0.275-1.084 0.072-0.181 0.144-0.369 0.282-0.513 0.13-0.13 0.282-0.195 0.426-0.195h0.014c0.217 0 0.426 0.145 0.52 0.405 0.072 0.188 0.072 0.383 0.087 0.578l0.007 0.26v0.173c0 0.628-0.036 1.264-0.087 1.893-0.13 1.582-0.181 3.172-0.181 4.768 0 0.47 0.007 0.946 0.014 1.416 0.007 0.318 0.014 0.318 0.332 0.318l0.26-0.007c0.47-0.007 0.946-0.036 1.409-0.152 0.195-0.058 0.383-0.137 0.564-0.246 0.383-0.217 0.578-0.491 0.607-0.975 0.072-1.763 0.188-3.518 0.52-5.252 0.108-0.549 0.238-1.091 0.433-1.618 0.094-0.289 0.224-0.564 0.383-0.824 0.101-0.152 0.21-0.296 0.361-0.405 0.123-0.080 0.238-0.123 0.354-0.123h0.014c0.202 0 0.376 0.144 0.448 0.412 0.116 0.426 0.144 0.867 0.166 1.3l0.007 0.159v0.065c0 0.686-0.101 1.358-0.195 2.030-0.173 1.358-0.578 2.651-1.279 3.836-0.101 0.166-0.13 0.339-0.145 0.52-0.108 1.503-0.195 3.005-0.238 4.515-0.022 0.766-0.036 1.524-0.036 2.29 0 0.354 0 0.708 0.007 1.062 0.007 0.47 0.022 0.946 0.043 1.416 0.036 0.629 0.094 1.257 0.195 1.878 0.058 0.332 0.137 0.672 0.303 0.975 0.029 0.036 0.051 0.087 0.065 0.13 0.022 0.043 0.029 0.094 0.029 0.144 0 0.13-0.058 0.238-0.159 0.303-0.050 0.022-0.101 0.036-0.159 0.036-0.108 0-0.217-0.043-0.304-0.144z"></path>
<path d="M16.956 25.051c-0.246 0-0.433-0.144-0.563-0.354-0.094-0.144-0.152-0.311-0.202-0.47-0.224-0.708-0.325-1.445-0.419-2.175-0.332-2.659-0.499-5.332-0.499-8.012v-0.491c0.022-2.601 0.217-5.187 0.701-7.745 0.029-0.152 0.058-0.311 0.094-0.462 0.051-0.181 0.123-0.347 0.246-0.484 0.159-0.181 0.361-0.267 0.556-0.267 0.224 0 0.441 0.108 0.6 0.332 0.13 0.195 0.181 0.412 0.181 0.628 0 0.116-0.014 0.231-0.036 0.354-0.217 1.069-0.368 2.146-0.484 3.236-0.173 1.633-0.238 3.266-0.238 4.898l0.007 0.99c0.022 1.033 0.058 2.066 0.123 3.092 0.007 0.144 0.022 0.347 0.065 0.744l0.274-1.618c0.491-2.601 1.055-5.187 1.82-7.723 0.108-0.369 0.238-0.737 0.405-1.084 0.094-0.202 0.202-0.39 0.361-0.542 0.173-0.166 0.369-0.246 0.556-0.246 0.195 0 0.39 0.080 0.556 0.238 0.253 0.246 0.368 0.563 0.455 0.896 0.144 0.607 0.173 1.228 0.209 1.842 0.101 1.806 0.202 3.612 0.296 5.418 0.007 0.094 0.015 0.166 0.036 0.267 0.108-0.144 0.21-0.39 0.274-0.535 0.289-0.6 0.564-1.206 0.925-1.777 0.137-0.209 0.267-0.433 0.462-0.607 0.152-0.137 0.311-0.202 0.462-0.202 0.217 0 0.412 0.137 0.527 0.419 0.101 0.253 0.137 0.52 0.159 0.788 0.043 0.708 0.080 1.423 0.137 2.138 0.043 0.628 0.123 1.257 0.34 1.857 0.065 0.18 0.144 0.361 0.26 0.52 0.058 0.080 0.108 0.116 0.152 0.116 0.050 0 0.094-0.036 0.159-0.108 0.13-0.144 0.238-0.311 0.34-0.477 0.564-0.961 1.040-2.362 1.575-3.699 0.058-0.137 0.13-0.325 0.159-0.383 0.029-0.051 0.065-0.080 0.123-0.080 0.036 0.007 0.065 0.022 0.080 0.044s0.029 0.050 0.029 0.079c-0.007 0.051-0.065 0.238-0.108 0.361-0.527 1.394-1.019 2.854-1.503 3.901-0.087 0.173-0.188 0.368-0.289 0.535-0.050 0.080-0.108 0.173-0.18 0.238-0.181 0.181-0.296 0.239-0.484 0.246h-0.029c-0.116 0-0.238-0.036-0.361-0.108-0.224-0.13-0.405-0.304-0.542-0.527-0.412-0.657-0.643-1.38-0.73-2.153-0.050-0.448-0.079-0.896-0.079-1.344 0-0.339 0.014-0.679 0.043-1.018 0.014-0.166 0.022-0.311 0.029-0.397-0.101 0.152-0.224 0.383-0.311 0.535-0.354 0.614-0.6 1.272-0.91 1.9-0.123 0.253-0.246 0.506-0.397 0.744-0.188 0.303-0.448 0.448-0.701 0.448-0.26 0-0.52-0.159-0.715-0.484-0.166-0.274-0.246-0.578-0.311-0.888-0.166-0.744-0.238-1.51-0.296-2.269-0.080-1.091-0.116-2.182-0.159-3.273-0.007-0.289-0.015-0.52-0.036-0.65-0.058 0.166-0.13 0.412-0.181 0.585-0.852 2.947-1.582 5.924-2.008 8.973-0.195 1.409-0.304 2.825-0.311 4.248 0 0.18 0 0.361-0.065 0.535-0.094 0.274-0.26 0.47-0.563 0.506h-0.065z"></path>
<path d="M4.169 25.706c-2.172-2.644-3.478-6.025-3.478-9.706 0-8.442 6.868-15.31 15.31-15.31s15.31 6.868 15.31 15.31c0 3.681-1.306 7.062-3.478 9.706h0.879c2.062-2.694 3.289-6.059 3.289-9.706 0-8.823-7.178-16-16-16s-16 7.178-16 16c0 3.647 1.227 7.012 3.289 9.706h0.88z"></path>
<path d="M23.38 29.41c-2.19 1.21-4.706 1.9-7.38 1.9s-5.19-0.69-7.38-1.9h-1.338c2.51 1.637 5.504 2.59 8.718 2.59s6.208-0.953 8.718-2.59h-1.338z"></path>
<path d="M2.349 28.674v-0.861h-0.341v0.861h-0.41v-2.058h0.41v0.826h0.341v-0.826h0.41v2.058h-0.41z"></path>
<path d="M3.366 28.674v-2.058h0.948v0.37h-0.538v0.465h0.462v0.37h-0.462v0.483h0.538v0.37h-0.948z"></path>
<path d="M5.444 27.22l-0.159 0.763h0.318l-0.159-0.763zM5.747 28.674l-0.066-0.321h-0.474l-0.067 0.321h-0.428l0.529-2.058h0.405l0.529 2.058h-0.428z"></path>
<path d="M6.64 28.674v-2.058h0.41v1.688h0.538v0.37h-0.948z"></path>
<path d="M8.616 26.986v1.688h-0.41v-1.688h-0.347v-0.37h1.104v0.37h-0.347z"></path>
<path d="M10.22 28.674v-0.861h-0.341v0.861h-0.41v-2.058h0.41v0.826h0.341v-0.826h0.41v2.058h-0.41z"></path>
<path d="M11.905 27.899v0.774h-0.41v-0.774l-0.419-1.283h0.451l0.173 0.746 0.173-0.746h0.451l-0.419 1.283z"></path>
<path d="M14.615 28.674v-1.072l-0.225 0.705h-0.211l-0.22-0.702v1.069h-0.41v-2.058h0.361l0.376 1.009 0.376-1.009h0.364v2.058h-0.41z"></path>
<path d="M16.221 27.22l-0.159 0.763h0.318l-0.159-0.763zM16.525 28.674l-0.066-0.321h-0.474l-0.067 0.321h-0.428l0.529-2.058h0.405l0.529 2.058h-0.428z"></path>
<path d="M18.264 28.674l-0.436-1.006v1.006h-0.41v-2.058h0.358l0.428 1.006v-1.006h0.41v2.058h-0.35z"></path>
<path d="M19.81 27.22l-0.159 0.763h0.318l-0.159-0.763zM20.113 28.674l-0.066-0.321h-0.474l-0.067 0.321h-0.428l0.529-2.058h0.405l0.529 2.058h-0.428z"></path>
<path d="M21.506 28.697c-0.222 0-0.358-0.092-0.451-0.208-0.144-0.176-0.153-0.448-0.153-0.844s0.009-0.668 0.153-0.844c0.093-0.116 0.228-0.208 0.451-0.208 0.173 0 0.306 0.058 0.405 0.153 0.11 0.11 0.167 0.272 0.176 0.459h-0.41c-0.003-0.087-0.014-0.243-0.17-0.243-0.075 0-0.116 0.035-0.139 0.081-0.049 0.095-0.055 0.353-0.055 0.601s0.006 0.506 0.055 0.601c0.023 0.046 0.064 0.081 0.139 0.081 0.136 0 0.17-0.127 0.17-0.24v-0.214h-0.17v-0.332h0.581v0.523c0 0.41-0.228 0.633-0.581 0.633z"></path>
<path d="M22.639 28.674v-2.058h0.948v0.37h-0.538v0.465h0.462v0.37h-0.462v0.483h0.538v0.37h-0.948z"></path>
<path d="M25.193 28.674v-1.072l-0.225 0.705h-0.211l-0.22-0.702v1.069h-0.41v-2.058h0.361l0.376 1.009 0.376-1.009h0.364v2.058h-0.41z"></path>
<path d="M26.21 28.674v-2.058h0.948v0.37h-0.538v0.465h0.462v0.37h-0.462v0.483h0.538v0.37h-0.948z"></path>
<path d="M28.545 28.674l-0.436-1.006v1.006h-0.41v-2.058h0.358l0.428 1.006v-1.006h0.41v2.058h-0.35z"></path>
<path d="M30.157 26.986v1.688h-0.41v-1.688h-0.347v-0.37h1.104v0.37h-0.347z"></path>
</symbol>
<symbol id="icon-close" viewBox="0 0 32 32">
<path stroke-linejoin="round" stroke-linecap="round" stroke-miterlimit="4" stroke-width="1.6" d="M8 8l16 16M8 24l16-16"></path>
</symbol>
<symbol id="icon-menuburgerhorizontaltablet" viewBox="0 0 58 32">
<path stroke-linejoin="round" stroke-linecap="round" stroke-miterlimit="4" stroke-width="1.6" d="M7.2 8h43.2M7.2 16h43.2M7.2 24h43.2"></path>
</symbol>
</defs>
</svg>
