<svg width="33" height="32" viewBox="0 0 33 32" fill="none" xmlns="http://www.w3.org/2000/svg">
<g clip-path="url(#clip0_2061_1106)">
<path d="M30.7344 0H2.26561C1.29049 0 0.5 0.790491 0.5 1.76561V30.2344C0.5 31.2095 1.29049 32 2.26561 32H30.7344C31.7095 32 32.5 31.2095 32.5 30.2344V1.76561C32.5 0.790491 31.7095 0 30.7344 0Z" fill="#3D5A98"/>
<path d="M17.965 28.1179V16.6604H21.81L22.385 12.1954H17.965V9.34545C17.965 8.05295 18.325 7.17044 20.1775 7.17044H22.5425V3.17044C21.3973 3.05109 20.2464 2.99434 19.095 3.00044C15.69 3.00044 13.345 5.07544 13.345 8.90295V12.1954H9.5V16.6604H13.345V28.1179H17.965Z" fill="white"/>
</g>
<defs>
<clipPath id="clip0_2061_1106">
<rect x="0.5" width="32" height="32" rx="8" fill="white"/>
</clipPath>
</defs>
</svg>
